<svg xmlns="http://www.w3.org/2000/svg" width="32" height="32"><path fill-rule="evenodd" d="M20.488.998a.5.5 0 0 0-.074.006H6.996c-1.1 0-2 .9-2 2v26c0 1.1.9 2 2 2h18c1.1 0 2-.9 2-2v-.744c0-.015.004-.03.004-.045V22.5a.5.5 0 0 0-.004-.063V7.582a.5.5 0 0 0-.195-.48l-5.906-5.907a.5.5 0 0 0-.407-.197zM6.996 2.004h13v4c0 1.1.9 2 2 2h4V22h-20V3.004c0-.563.437-1 1-1zm14 .707 4.293 4.293h-3.293c-.563 0-1-.437-1-1V2.71zM10.5 8v1.5H9v1h1.5V12h1v-1.5H13v-1h-1.5V8h-1zm3 3c-.417 0-.775.193-1.041.459-.266.266-.459.624-.459 1.041v1c0 .397.177.738.424 1-.247.262-.424.603-.424 1v1c0 .397.177.738.424 1-.247.262-.424.603-.424 1v1c0 .417.193.775.459 1.041.266.266.624.459 1.041.459h5c.417 0 .775-.193 1.041-.459.266-.266.459-.624.459-1.041v-1c0-.397-.177-.738-.424-1 .247-.262.424-.603.424-1v-1c0-.397-.177-.738-.424-1 .247-.262.424-.603.424-1v-1c0-.417-.193-.775-.459-1.041-.266-.266-.624-.459-1.041-.459h-5zm0 1h5c.083 0 .225.057.334.166.109.109.166.25.166.334v1a.545.545 0 0 1-.166.334.544.544 0 0 1-.334.166h-5a.544.544 0 0 1-.334-.166A.544.544 0 0 1 13 13.5v-1c0-.083.057-.225.166-.334A.544.544 0 0 1 13.5 12zm0 3h5c.083 0 .225.057.334.166.109.109.166.25.166.334v1a.545.545 0 0 1-.166.334.544.544 0 0 1-.334.166h-5a.544.544 0 0 1-.334-.166A.544.544 0 0 1 13 16.5v-1c0-.083.057-.225.166-.334A.544.544 0 0 1 13.5 15zm0 3h5c.083 0 .225.057.334.166.109.109.166.25.166.334v1a.545.545 0 0 1-.166.334.544.544 0 0 1-.334.166h-5a.544.544 0 0 1-.334-.166A.544.544 0 0 1 13 19.5v-1c0-.083.057-.225.166-.334A.544.544 0 0 1 13.5 18zM6 23H25.996v5.262c-.02 1.016-.68 1.738-1.404 1.738H7.408C6.672 30 6 29.257 6 28.215V23zm3.453 1a.5.5 0 0 0-.062.012c-.77.06-1.387.704-1.387 1.488 0 .79.627 1.44 1.406 1.49a.5.5 0 0 0 .094.012h1c.286 0 .5.214.5.5 0 .286-.214.5-.5.5h-2a.5.5 0 1 0 0 1h2a.5.5 0 0 0 .103-.014 1.503 1.503 0 0 0 1.397-1.488c0-.786-.62-1.433-1.393-1.49a.5.5 0 0 0-.107-.01h-.965a.5.5 0 0 0-.035 0 .488.488 0 0 1-.5-.5c0-.286.214-.5.5-.5h2a.5.5 0 1 0 0-1H9.539a.5.5 0 0 0-.035 0 .5.5 0 0 0-.05 0zm6.05 0a2.508 2.508 0 0 0-2.5 2.5c0 1.375 1.126 2.5 2.5 2.5.508 0 .979-.156 1.374-.418l.268.268a.5.5 0 1 0 .707-.707l-.266-.266c.263-.396.418-.869.418-1.377 0-1.375-1.125-2.5-2.5-2.5zm3.993 0a.5.5 0 0 0-.492.508v3.951a.5.5 0 0 0 .008.135.5.5 0 0 0 .011.045.5.5 0 0 0 .004.015.5.5 0 0 0 .014.034.5.5 0 0 0 .027.058.5.5 0 0 0 .02.031.5.5 0 0 0 .055.065.5.5 0 0 0 .011.013.5.5 0 0 0 .006.012.5.5 0 0 0 .033.026.5.5 0 0 0 .012.011.5.5 0 0 0 .035.022.5.5 0 0 0 .076.039.5.5 0 0 0 .028.01.5.5 0 0 0 .168.027H21.5a.5.5 0 1 0 0-1h-1.496v-3.494a.5.5 0 0 0-.508-.508zm-3.992.996a1.493 1.493 0 0 1 1.35 2.147.5.5 0 0 0-.35-.147.5.5 0 0 0-.358.852 1.492 1.492 0 0 1-2.143-1.352c0-.834.667-1.5 1.5-1.5z" color="#000" font-family="sans-serif" font-weight="400" overflow="visible" style="line-height:normal;text-indent:0;text-align:start;text-decoration-line:none;text-decoration-style:solid;text-decoration-color:#000;text-transform:none;block-progression:tb;white-space:normal;isolation:auto;mix-blend-mode:normal;solid-color:#000;solid-opacity:1"/></svg>